<?xml version="1.0" encoding="UTF-8"?>
<!DOCTYPE svg PUBLIC "-//W3C//DTD SVG 1.1//EN" "http://www.w3.org/Graphics/SVG/1.1/DTD/svg11.dtd">
<svg xmlns="http://www.w3.org/2000/svg" version="1.1" width="308px" height="120px" style="shape-rendering:geometricPrecision; text-rendering:geometricPrecision; image-rendering:optimizeQuality; fill-rule:evenodd; clip-rule:evenodd" xmlns:xlink="http://www.w3.org/1999/xlink">
<g><path style="opacity:1" fill="#de193c" d="M 233.5,4.5 C 238.64,5.48808 243.974,5.82141 249.5,5.5C 249.66,7.19919 249.494,8.86586 249,10.5C 248.768,9.26253 248.268,8.26253 247.5,7.5C 241.71,7.09616 236.044,7.59616 230.5,9C 227.015,11.6171 225.348,15.1171 225.5,19.5C 225.167,19.5 224.833,19.5 224.5,19.5C 223.508,19.6716 222.842,19.3382 222.5,18.5C 221.432,17.5655 220.099,17.2322 218.5,17.5C 217.5,17.5 216.5,17.5 215.5,17.5C 215.5,20.8333 215.5,24.1667 215.5,27.5C 214.833,27.5 214.167,27.5 213.5,27.5C 213.5,23.5 213.5,19.5 213.5,15.5C 214.873,15.6567 216.207,15.49 217.5,15C 219.391,13.5576 221.391,12.3909 223.5,11.5C 225.104,10.713 225.771,9.3797 225.5,7.5C 220.968,7.18178 216.634,7.51511 212.5,8.5C 208.269,8.43782 205.935,10.4378 205.5,14.5C 203.059,16.0745 201.893,18.4079 202,21.5C 201.503,19.1902 201.337,16.8568 201.5,14.5C 202.172,9.66121 204.838,6.49454 209.5,5C 217.606,4.68903 225.606,4.52237 233.5,4.5 Z"/></g>
<g><path style="opacity:1" fill="#b42278" d="M 212.5,8.5 C 216.634,7.51511 220.968,7.18178 225.5,7.5C 225.771,9.3797 225.104,10.713 223.5,11.5C 223.5,10.5 223.5,9.5 223.5,8.5C 219.833,8.5 216.167,8.5 212.5,8.5 Z"/></g>
<g><path style="opacity:1" fill="#df2137" d="M 73.5,7.5 C 78.0343,9.0529 82.7009,10.5529 87.5,12C 84.4929,12.3013 81.4929,12.1346 78.5,11.5C 78.1667,11.5 77.8333,11.5 77.5,11.5C 69.303,9.12964 60.803,8.12964 52,8.5C 47.5,8.66667 43,8.83333 38.5,9C 37.2625,9.23209 36.2625,9.73209 35.5,10.5C 31.6814,10.414 28.0148,11.0807 24.5,12.5C 22.8212,12.7148 21.8212,12.0481 21.5,10.5C 25.557,8.78034 29.8903,7.61367 34.5,7C 40.8533,6.70714 47.1867,6.20714 53.5,5.5C 60.3275,6.05237 66.9941,6.71904 73.5,7.5 Z"/></g>
<g><path style="opacity:1" fill="#d61853" d="M 77.5,11.5 C 74.8333,11.5 72.1667,11.5 69.5,11.5C 63.7403,9.99986 57.7403,9.33319 51.5,9.5C 47.3188,9.5011 43.3188,9.83443 39.5,10.5C 39.1667,10.5 38.8333,10.5 38.5,10.5C 37.5,10.5 36.5,10.5 35.5,10.5C 36.2625,9.73209 37.2625,9.23209 38.5,9C 43,8.83333 47.5,8.66667 52,8.5C 60.803,8.12964 69.303,9.12964 77.5,11.5 Z"/></g>
<g><path style="opacity:1" fill="#9b2b96" d="M 39.5,10.5 C 43.3188,9.83443 47.3188,9.5011 51.5,9.5C 57.7403,9.33319 63.7403,9.99986 69.5,11.5C 59.5185,10.7433 49.5185,10.41 39.5,10.5 Z"/></g>
<g><path style="opacity:1" fill="#b02583" d="M 247.5,7.5 C 247.771,9.3797 247.104,10.713 245.5,11.5C 245.5,10.5 245.5,9.5 245.5,8.5C 240.733,8.19076 236.066,8.69076 231.5,10C 229.536,11.451 228.203,13.2843 227.5,15.5C 227.5,15.8333 227.5,16.1667 227.5,16.5C 226.833,17.5 226.167,18.5 225.5,19.5C 225.348,15.1171 227.015,11.6171 230.5,9C 236.044,7.59616 241.71,7.09616 247.5,7.5 Z"/></g>
<g><path style="opacity:1" fill="#703ecd" d="M 38.5,10.5 C 38.8333,10.5 39.1667,10.5 39.5,10.5C 49.5185,10.41 59.5185,10.7433 69.5,11.5C 72.1667,11.5 74.8333,11.5 77.5,11.5C 77.8333,11.5 78.1667,11.5 78.5,11.5C 79.1667,12.1667 79.8333,12.8333 80.5,13.5C 76.837,12.8875 73.1703,12.7208 69.5,13C 72.1867,14.0486 74.52,15.5486 76.5,17.5C 73.8915,17.5997 71.5582,16.9331 69.5,15.5C 69.3893,14.8826 69.056,14.3826 68.5,14C 63.8452,13.5008 59.1785,13.3342 54.5,13.5C 53.504,27.9905 53.1707,42.6572 53.5,57.5C 52.5269,55.0521 52.1936,52.3854 52.5,49.5C 52.5,44.1667 52.5,38.8333 52.5,33.5C 52.5,26.5 52.5,19.5 52.5,12.5C 51.5,12.5 50.5,12.5 49.5,12.5C 49.4452,15.6145 48.1119,17.9478 45.5,19.5C 46.6298,17.6854 47.2964,15.6854 47.5,13.5C 44.1667,12.8333 40.8333,12.1667 37.5,11.5C 38.1667,11.5 38.5,11.1667 38.5,10.5 Z"/></g>
<g><path style="opacity:1" fill="#b12781" d="M 35.5,10.5 C 36.5,10.5 37.5,10.5 38.5,10.5C 38.5,11.1667 38.1667,11.5 37.5,11.5C 33.0192,11.4255 28.6859,12.0921 24.5,13.5C 24.5,13.1667 24.5,12.8333 24.5,12.5C 28.0148,11.0807 31.6814,10.414 35.5,10.5 Z"/></g>
<g><path style="opacity:1" fill="#e41d3e" d="M 193.5,10.5 C 193.631,11.3764 193.298,12.0431 192.5,12.5C 189.562,11.4252 186.562,11.2585 183.5,12C 181.937,12.7589 180.937,13.9256 180.5,15.5C 178.182,17.1852 177.182,19.5185 177.5,22.5C 175.113,10.3974 180.113,5.89741 192.5,9C 193.056,9.38258 193.389,9.88258 193.5,10.5 Z"/></g>
<g><path style="opacity:1" fill="#6a42d9" d="M 212.5,8.5 C 216.167,8.5 219.833,8.5 223.5,8.5C 223.5,9.5 223.5,10.5 223.5,11.5C 221.391,12.3909 219.391,13.5576 217.5,15C 216.207,15.49 214.873,15.6567 213.5,15.5C 213.167,15.5 212.833,15.5 212.5,15.5C 211.796,13.6558 210.463,13.1558 208.5,14C 206.981,15.2183 205.814,16.7183 205,18.5C 204.501,24.1569 204.334,29.8236 204.5,35.5C 204.5,39.5 204.5,43.5 204.5,47.5C 204.823,53.69 204.49,59.69 203.5,65.5C 203.5,58.5 203.5,51.5 203.5,44.5C 203.5,40.1667 203.5,35.8333 203.5,31.5C 202.989,25.5817 203.656,19.9151 205.5,14.5C 205.935,10.4378 208.269,8.43782 212.5,8.5 Z"/></g>
<g><path style="opacity:1" fill="#713bd0" d="M 245.5,11.5 C 243.745,12.9044 241.745,13.9044 239.5,14.5C 240.878,11.3606 239.711,10.0273 236,10.5C 234.833,10.6667 233.667,10.8333 232.5,11C 230.963,12.7073 229.296,14.2073 227.5,15.5C 228.203,13.2843 229.536,11.451 231.5,10C 236.066,8.69076 240.733,8.19076 245.5,8.5C 245.5,9.5 245.5,10.5 245.5,11.5 Z"/></g>
<g><path style="opacity:1" fill="#dc234a" d="M 69.5,15.5 C 71.5582,16.9331 73.8915,17.5997 76.5,17.5C 76.5,17.8333 76.5,18.1667 76.5,18.5C 77.9002,19.1001 78.9002,20.1001 79.5,21.5C 79.5,22.8333 78.8333,23.5 77.5,23.5C 71.5554,19.1847 64.8887,16.8514 57.5,16.5C 55.7973,17.6602 55.1307,16.9935 55.5,14.5C 60.2303,14.2834 64.8969,14.6167 69.5,15.5 Z"/></g>
<g><path style="opacity:1" fill="#d52443" d="M 233.5,4.5 C 239.631,3.90785 245.464,4.57451 251,6.5C 251.667,8.16667 251.667,9.83333 251,11.5C 247.031,14.8893 242.864,17.8893 238.5,20.5C 238.167,20.5 237.833,20.5 237.5,20.5C 236.766,19.2921 236.433,17.9587 236.5,16.5C 237.791,16.7373 238.791,16.404 239.5,15.5C 239.5,15.1667 239.5,14.8333 239.5,14.5C 241.745,13.9044 243.745,12.9044 245.5,11.5C 247.104,10.713 247.771,9.3797 247.5,7.5C 248.268,8.26253 248.768,9.26253 249,10.5C 249.494,8.86586 249.66,7.19919 249.5,5.5C 243.974,5.82141 238.64,5.48808 233.5,4.5 Z"/></g>
<g><path style="opacity:1" fill="#4b48f6" d="M 80.5,13.5 C 85.8712,12.8522 89.8712,14.8522 92.5,19.5C 92.5646,22.4715 91.7313,25.1382 90,27.5C 86.5097,25.0087 83.343,22.1754 80.5,19C 79.2068,18.51 77.8734,18.3433 76.5,18.5C 76.5,18.1667 76.5,17.8333 76.5,17.5C 74.52,15.5486 72.1867,14.0486 69.5,13C 73.1703,12.7208 76.837,12.8875 80.5,13.5 Z"/></g>
<g><path style="opacity:1" fill="#e0325b" d="M 21.5,10.5 C 21.8212,12.0481 22.8212,12.7148 24.5,12.5C 24.5,12.8333 24.5,13.1667 24.5,13.5C 16.4862,15.5138 11.4862,20.5138 9.5,28.5C 8.09368,28.9731 7.42702,29.9731 7.5,31.5C 7.13493,36.0937 6.13493,40.427 4.5,44.5C 1.11809,28.5971 6.78476,17.2638 21.5,10.5 Z"/></g>
<g><path style="opacity:1" fill="#7c3ac0" d="M 37.5,11.5 C 40.8333,12.1667 44.1667,12.8333 47.5,13.5C 37.1969,12.0296 27.8635,14.0296 19.5,19.5C 17.9699,20.2112 16.6366,21.2112 15.5,22.5C 15.631,21.7611 15.4643,21.0944 15,20.5C 12.5264,22.8191 10.693,25.4858 9.5,28.5C 11.4862,20.5138 16.4862,15.5138 24.5,13.5C 28.6859,12.0921 33.0192,11.4255 37.5,11.5 Z"/></g>
<g><path style="opacity:1" fill="#424dfc" d="M 52.5,33.5 C 51.7627,31.6182 50.5961,30.9515 49,31.5C 48.51,30.2068 48.3433,28.8734 48.5,27.5C 47.1667,27.5 45.8333,27.5 44.5,27.5C 44.8333,24.8333 45.1667,22.1667 45.5,19.5C 48.1119,17.9478 49.4452,15.6145 49.5,12.5C 50.5,12.5 51.5,12.5 52.5,12.5C 52.5,19.5 52.5,26.5 52.5,33.5 Z"/></g>
<g><path style="opacity:1" fill="#5348f0" d="M 189.5,25.5 C 188.107,26.2598 186.607,26.9265 185,27.5C 182.367,26.9106 181.2,25.244 181.5,22.5C 180.899,13.2554 184.732,10.5887 193,14.5C 193.167,15.6667 193.333,16.8333 193.5,18C 192.768,20.8785 191.435,23.3785 189.5,25.5 Z"/></g>
<g><path style="opacity:1" fill="#e02c5c" d="M 47.5,13.5 C 47.2964,15.6854 46.6298,17.6854 45.5,19.5C 42.0747,22.6866 40.7413,26.6866 41.5,31.5C 40.8386,32.7175 40.1719,34.0508 39.5,35.5C 38.8243,34.3984 38.1577,33.3984 37.5,32.5C 38.2648,27.509 39.5981,22.6756 41.5,18C 32.6668,17.0911 25.0001,19.5911 18.5,25.5C 17.7784,25.9175 17.2784,26.5842 17,27.5C 16.8253,31.211 16.3253,34.8776 15.5,38.5C 14.3391,34.2047 14.1725,29.8713 15,25.5C 17.1019,23.9052 18.6019,21.9052 19.5,19.5C 27.8635,14.0296 37.1969,12.0296 47.5,13.5 Z"/></g>
<g><path style="opacity:0.063" fill="#a72a78" d="M 193.5,10.5 C 195.033,12.6345 195.7,15.1345 195.5,18C 195.7,20.8655 195.033,23.3655 193.5,25.5C 192.295,24.3143 190.961,24.3143 189.5,25.5C 191.435,23.3785 192.768,20.8785 193.5,18C 193.333,16.8333 193.167,15.6667 193,14.5C 184.732,10.5887 180.899,13.2554 181.5,22.5C 180.532,20.3926 180.198,18.0593 180.5,15.5C 180.937,13.9256 181.937,12.7589 183.5,12C 186.562,11.2585 189.562,11.4252 192.5,12.5C 193.298,12.0431 193.631,11.3764 193.5,10.5 Z"/></g>
<g><path style="opacity:0.941" fill="#d1336f" d="M 54.5,13.5 C 59.1785,13.3342 63.8452,13.5008 68.5,14C 69.056,14.3826 69.3893,14.8826 69.5,15.5C 64.8969,14.6167 60.2303,14.2834 55.5,14.5C 55.1307,16.9935 55.7973,17.6602 57.5,16.5C 57.5,26.8333 57.5,37.1667 57.5,47.5C 56.9851,45.2488 55.9851,43.2488 54.5,41.5C 54.5,32.1667 54.5,22.8333 54.5,13.5 Z"/></g>
<g><path style="opacity:1" fill="#db2e61" d="M 73.5,7.5 C 83.4244,7.41291 91.5911,11.0796 98,18.5C 98.7914,19.745 99.2914,21.0783 99.5,22.5C 98.9728,28.8482 99.6395,35.0149 101.5,41C 100.99,42.8261 100.156,42.9928 99,41.5C 98.8267,35.9842 98.3267,30.6509 97.5,25.5C 96.1667,23.8333 94.8333,22.1667 93.5,20.5C 93.5,19.8333 93.1667,19.5 92.5,19.5C 89.8712,14.8522 85.8712,12.8522 80.5,13.5C 79.8333,12.8333 79.1667,12.1667 78.5,11.5C 81.4929,12.1346 84.4929,12.3013 87.5,12C 82.7009,10.5529 78.0343,9.0529 73.5,7.5 Z"/></g>
<g><path style="opacity:1" fill="#6b4ade" d="M 15.5,22.5 C 13.914,25.7026 13.2473,29.2026 13.5,33C 13.2473,36.7974 13.914,40.2974 15.5,43.5C 15.7036,45.6854 16.3702,47.6854 17.5,49.5C 15.3935,48.4336 13.8935,46.7669 13,44.5C 12.944,41.2198 12.1107,38.2198 10.5,35.5C 9.52577,37.7427 9.19244,40.076 9.5,42.5C 9.16667,42.5 8.83333,42.5 8.5,42.5C 7.51836,39.0381 7.18503,35.3714 7.5,31.5C 7.42702,29.9731 8.09368,28.9731 9.5,28.5C 10.693,25.4858 12.5264,22.8191 15,20.5C 15.4643,21.0944 15.631,21.7611 15.5,22.5 Z"/></g>
<g><path style="opacity:1" fill="#484ff6" d="M 76.5,18.5 C 77.8734,18.3433 79.2068,18.51 80.5,19C 83.343,22.1754 86.5097,25.0087 90,27.5C 91.7313,25.1382 92.5646,22.4715 92.5,19.5C 93.1667,19.5 93.5,19.8333 93.5,20.5C 94.6813,24.7426 95.348,29.076 95.5,33.5C 93.8235,32.8166 93.1568,31.4832 93.5,29.5C 91.8333,29.5 90.1667,29.5 88.5,29.5C 88.0554,33.0911 87.0554,36.4244 85.5,39.5C 86.0894,35.0293 85.4228,31.0293 83.5,27.5C 83.7709,25.6203 83.1042,24.287 81.5,23.5C 81.1667,22.5 80.5,21.8333 79.5,21.5C 78.9002,20.1001 77.9002,19.1001 76.5,18.5 Z"/></g>
<g><path style="opacity:1" fill="#e2366e" d="M 180.5,15.5 C 180.198,18.0593 180.532,20.3926 181.5,22.5C 181.2,25.244 182.367,26.9106 185,27.5C 186.607,26.9265 188.107,26.2598 189.5,25.5C 190.961,24.3143 192.295,24.3143 193.5,25.5C 193.647,28.7916 194.647,31.7916 196.5,34.5C 195.609,35.1098 194.609,35.4431 193.5,35.5C 192.972,34.2794 192.305,33.1127 191.5,32C 188.633,31.1993 185.966,31.3659 183.5,32.5C 181.234,32.1412 179.401,32.8078 178,34.5C 175.609,33.3975 175.109,34.0642 176.5,36.5C 175.066,37.2298 173.9,38.2298 173,39.5C 172.289,37.1009 172.456,34.7676 173.5,32.5C 170.572,31.5159 167.572,31.1826 164.5,31.5C 160.5,31.5 156.5,31.5 152.5,31.5C 150.059,31.7499 148.059,32.7499 146.5,34.5C 145.761,34.631 145.094,34.4643 144.5,34C 145.823,33.1841 146.489,32.0174 146.5,30.5C 153.439,27.0157 160.606,26.6824 168,29.5C 170.719,28.5562 173.552,28.2229 176.5,28.5C 176.667,31.9571 177.667,32.2904 179.5,29.5C 178.054,27.3821 177.387,25.0488 177.5,22.5C 177.182,19.5185 178.182,17.1852 180.5,15.5 Z"/></g>
<g><path style="opacity:1" fill="#4251fa" d="M 239.5,14.5 C 237.167,14.5 234.833,14.5 232.5,14.5C 233.388,26.1404 233.721,37.8071 233.5,49.5C 231.386,48.6398 230.22,46.9732 230,44.5C 229.077,45.7588 228.243,47.0921 227.5,48.5C 226.263,37.8226 226.263,27.1559 227.5,16.5C 227.5,16.1667 227.5,15.8333 227.5,15.5C 229.296,14.2073 230.963,12.7073 232.5,11C 233.667,10.8333 234.833,10.6667 236,10.5C 239.711,10.0273 240.878,11.3606 239.5,14.5 Z"/></g>
<g><path style="opacity:0.373" fill="#ac4bab" d="M 81.5,23.5 C 83.1042,24.287 83.7709,25.6203 83.5,27.5C 83.6661,33.1764 83.4994,38.8431 83,44.5C 81.9609,45.7101 80.7942,46.7101 79.5,47.5C 81.1791,45.3045 82.1791,42.8045 82.5,40C 82.4532,34.5062 82.1199,29.0062 81.5,23.5 Z"/></g>
<g><path style="opacity:1" fill="#4051fc" d="M 212.5,15.5 C 212.167,15.5 211.833,15.5 211.5,15.5C 210.887,24.7159 210.054,34.0493 209,43.5C 208.667,44.1667 208.333,44.8333 208,45.5C 206.603,44.7741 205.769,43.6075 205.5,42C 206.403,39.9211 207.069,37.7544 207.5,35.5C 207.167,34.5 206.833,33.5 206.5,32.5C 205.824,33.6016 205.158,34.6016 204.5,35.5C 204.334,29.8236 204.501,24.1569 205,18.5C 205.814,16.7183 206.981,15.2183 208.5,14C 210.463,13.1558 211.796,13.6558 212.5,15.5 Z"/></g>
<g><path style="opacity:1" fill="#e03b79" d="M 287.5,33.5 C 286.71,34.6085 286.21,35.9419 286,37.5C 285.809,35.2922 285.309,33.2922 284.5,31.5C 284.167,31.5 283.833,31.5 283.5,31.5C 272.754,29.7117 263.087,31.8783 254.5,38C 252.859,39.129 251.859,40.629 251.5,42.5C 248.806,43.8611 246.806,45.8611 245.5,48.5C 247.358,38.8012 253.024,32.3012 262.5,29C 270.087,27.4375 277.754,27.1041 285.5,28C 287.192,29.4007 287.859,31.2341 287.5,33.5 Z"/></g>
<g><path style="opacity:0.024" fill="#a64971" d="M 218.5,17.5 C 216.874,29.7622 215.874,42.0955 215.5,54.5C 215.5,52.1667 215.5,49.8333 215.5,47.5C 215.5,40.8333 215.5,34.1667 215.5,27.5C 215.5,24.1667 215.5,20.8333 215.5,17.5C 216.5,17.5 217.5,17.5 218.5,17.5 Z"/></g>
<g><path style="opacity:0.561" fill="#c84190" d="M 222.5,18.5 C 222.842,19.3382 223.508,19.6716 224.5,19.5C 224.337,31.4183 223.671,42.7516 222.5,53.5C 222.802,56.0593 222.468,58.3926 221.5,60.5C 221.171,46.3234 221.504,32.3234 222.5,18.5 Z"/></g>
<g><path style="opacity:1" fill="#e03a7a" d="M 239.5,15.5 C 238.791,16.404 237.791,16.7373 236.5,16.5C 236.433,17.9587 236.766,19.2921 237.5,20.5C 237.666,29.5062 237.5,38.5062 237,47.5C 235.819,37.1999 235.319,26.8666 235.5,16.5C 236.568,15.5655 237.901,15.2322 239.5,15.5 Z"/></g>
<g><path style="opacity:1" fill="#3d58fc" d="M 44.5,27.5 C 45.8333,27.5 47.1667,27.5 48.5,27.5C 48.3433,28.8734 48.51,30.2068 49,31.5C 50.5961,30.9515 51.7627,31.6182 52.5,33.5C 52.5,38.8333 52.5,44.1667 52.5,49.5C 50.857,49.5198 49.5237,48.8532 48.5,47.5C 47.7836,48.311 46.9503,48.9777 46,49.5C 44.85,48.5761 43.85,48.5761 43,49.5C 41.99,41.9986 42.49,34.6652 44.5,27.5 Z"/></g>
<g><path style="opacity:1" fill="#e13d75" d="M 146.5,30.5 C 146.489,32.0174 145.823,33.1841 144.5,34C 145.094,34.4643 145.761,34.631 146.5,34.5C 145.878,35.6266 145.045,36.6266 144,37.5C 143.567,41.3238 142.401,44.6572 140.5,47.5C 140.737,46.209 140.404,45.209 139.5,44.5C 137.607,40.2732 134.94,36.6066 131.5,33.5C 131.082,32.7784 130.416,32.2784 129.5,32C 123.62,31.0432 117.953,31.5432 112.5,33.5C 109.63,34.4333 107.296,36.1 105.5,38.5C 104.624,38.6309 103.957,38.2975 103.5,37.5C 104.524,36.1482 105.524,34.8149 106.5,33.5C 107.894,31.2918 109.894,29.7918 112.5,29C 119.626,26.766 126.626,27.0993 133.5,30C 136.695,31.6946 139.028,34.1946 140.5,37.5C 141.796,34.5393 143.796,32.206 146.5,30.5 Z"/></g>
<g><path style="opacity:1" fill="#e2418e" d="M 213.5,27.5 C 214.167,27.5 214.833,27.5 215.5,27.5C 215.5,34.1667 215.5,40.8333 215.5,47.5C 213.541,41.2504 212.874,34.5837 213.5,27.5 Z"/></g>
<g><path style="opacity:1" fill="#5653ef" d="M 193.5,35.5 C 193.5,45.1667 193.5,54.8333 193.5,64.5C 192.508,57.0182 192.175,49.3516 192.5,41.5C 188.865,41.6556 188.532,42.8223 191.5,45C 191.038,46.7216 190.872,48.555 191,50.5C 189.315,48.9825 187.815,47.3159 186.5,45.5C 185.833,50.6511 185.166,55.6511 184.5,60.5C 184.825,52.6484 184.492,44.9818 183.5,37.5C 181.517,37.8432 180.183,37.1765 179.5,35.5C 180.833,34.5 182.167,33.5 183.5,32.5C 185.966,31.3659 188.633,31.1993 191.5,32C 192.305,33.1127 192.972,34.2794 193.5,35.5 Z"/></g>
<g><path style="opacity:0.894" fill="#d43b84" d="M 201.5,14.5 C 201.337,16.8568 201.503,19.1902 202,21.5C 201.893,18.4079 203.059,16.0745 205.5,14.5C 203.656,19.9151 202.989,25.5817 203.5,31.5C 202.677,34.977 202.177,38.6437 202,42.5C 201.617,43.056 201.117,43.3893 200.5,43.5C 200.81,40.2869 200.477,37.2869 199.5,34.5C 199.068,27.5756 199.734,20.9089 201.5,14.5 Z"/></g>
<g><path style="opacity:1" fill="#d04790" d="M 164.5,31.5 C 167.572,31.1826 170.572,31.5159 173.5,32.5C 172.456,34.7676 172.289,37.1009 173,39.5C 173.9,38.2298 175.066,37.2298 176.5,36.5C 175.109,34.0642 175.609,33.3975 178,34.5C 179.401,32.8078 181.234,32.1412 183.5,32.5C 182.167,33.5 180.833,34.5 179.5,35.5C 178.414,35.62 177.747,36.2867 177.5,37.5C 177.833,38.1667 178.167,38.8333 178.5,39.5C 179.736,38.7542 181.07,38.4208 182.5,38.5C 182.552,40.9029 182.219,43.2362 181.5,45.5C 181.167,45.5 180.833,45.5 180.5,45.5C 180.5,44.5 180.5,43.5 180.5,42.5C 176.444,42.2916 172.61,42.9583 169,44.5C 165.205,42.6102 161.205,40.9435 157,39.5C 156.5,39.8333 156,40.1667 155.5,40.5C 160.803,43.2257 166.137,46.059 171.5,49C 173.464,50.451 174.797,52.2843 175.5,54.5C 173.281,52.3939 170.615,51.3939 167.5,51.5C 167.158,50.6618 166.492,50.3284 165.5,50.5C 161.558,48.0106 157.224,46.1773 152.5,45C 149.022,42.2935 148.689,39.2935 151.5,36C 154.5,35.3333 157.5,35.3333 160.5,36C 163.295,37.2997 165.961,38.7997 168.5,40.5C 170.849,38.7962 171.849,36.4629 171.5,33.5C 168.612,34.0102 166.279,33.3435 164.5,31.5 Z"/></g>
<g><path style="opacity:1" fill="#d64e92" d="M 124.5,40.5 C 126.065,44.6124 127.065,48.9457 127.5,53.5C 127.457,54.4164 127.124,55.0831 126.5,55.5C 125.644,51.4291 124.477,47.4291 123,43.5C 119.155,39.325 116.155,39.9917 114,45.5C 113.503,48.146 113.336,50.8127 113.5,53.5C 111.489,52.5834 110.489,50.9168 110.5,48.5C 111.436,45.1981 112.436,41.8647 113.5,38.5C 117.772,35.4817 121.439,36.1484 124.5,40.5 Z"/></g>
<g><path style="opacity:0.996" fill="#c645ab" d="M 179.5,35.5 C 180.183,37.1765 181.517,37.8432 183.5,37.5C 183.784,43.4173 183.117,49.084 181.5,54.5C 181.5,51.5 181.5,48.5 181.5,45.5C 182.219,43.2362 182.552,40.9029 182.5,38.5C 181.07,38.4208 179.736,38.7542 178.5,39.5C 178.167,38.8333 177.833,38.1667 177.5,37.5C 177.747,36.2867 178.414,35.62 179.5,35.5 Z"/></g>
<g><path style="opacity:1" fill="#694edf" d="M 283.5,31.5 C 283.5,42.8333 283.5,54.1667 283.5,65.5C 282.51,59.3554 282.177,53.0221 282.5,46.5C 282.5,41.8333 282.5,37.1667 282.5,32.5C 276.833,32.5 271.167,32.5 265.5,32.5C 265.5,33.5 265.5,34.5 265.5,35.5C 262.416,38.2597 260.083,41.593 258.5,45.5C 258.167,45.5 257.833,45.5 257.5,45.5C 257.5,43.5 257.5,41.5 257.5,39.5C 255.053,39.615 253.053,40.615 251.5,42.5C 251.859,40.629 252.859,39.129 254.5,38C 263.087,31.8783 272.754,29.7117 283.5,31.5 Z"/></g>
<g><path style="opacity:1" fill="#5054f3" d="M 131.5,33.5 C 134.94,36.6066 137.607,40.2732 139.5,44.5C 139.666,48.5138 139.499,52.5138 139,56.5C 138.768,57.7375 138.268,58.7375 137.5,59.5C 138.569,54.8224 138.569,50.1558 137.5,45.5C 136.154,43.9866 134.654,42.6533 133,41.5C 131.56,42.1476 130.06,42.4809 128.5,42.5C 127.27,40.7028 126.604,38.7028 126.5,36.5C 123.722,36.9783 121.722,35.9783 120.5,33.5C 124.139,32.5397 127.805,32.5397 131.5,33.5 Z"/></g>
<g><path style="opacity:1" fill="#5952ec" d="M 131.5,33.5 C 127.805,32.5397 124.139,32.5397 120.5,33.5C 121.722,35.9783 123.722,36.9783 126.5,36.5C 126.604,38.7028 127.27,40.7028 128.5,42.5C 128.5,43.5 128.5,44.5 128.5,45.5C 127.872,43.3384 126.539,41.6718 124.5,40.5C 121.439,36.1484 117.772,35.4817 113.5,38.5C 111.413,39.5846 110.08,41.2512 109.5,43.5C 108.566,44.5676 108.232,45.901 108.5,47.5C 106.71,46.9866 105.044,46.4866 103.5,46C 102.751,47.7337 102.251,49.567 102,51.5C 101.517,50.552 101.351,49.552 101.5,48.5C 101.608,46.2166 102.441,44.2166 104,42.5C 107.714,40.2871 110.548,37.2871 112.5,33.5C 117.953,31.5432 123.62,31.0432 129.5,32C 130.416,32.2784 131.082,32.7784 131.5,33.5 Z"/></g>
<g><path style="opacity:1" fill="#5f50e6" d="M 152.5,31.5 C 156.5,31.5 160.5,31.5 164.5,31.5C 166.279,33.3435 168.612,34.0102 171.5,33.5C 171.849,36.4629 170.849,38.7962 168.5,40.5C 165.961,38.7997 163.295,37.2997 160.5,36C 157.5,35.3333 154.5,35.3333 151.5,36C 148.689,39.2935 149.022,42.2935 152.5,45C 157.224,46.1773 161.558,48.0106 165.5,50.5C 159.296,49.4186 153.629,47.0853 148.5,43.5C 146.326,45.5266 145.992,47.8599 147.5,50.5C 146.034,49.653 145.2,48.3197 145,46.5C 144.333,43.8333 144.333,41.1667 145,38.5C 147.396,35.9334 149.896,33.6 152.5,31.5 Z"/></g>
<g><path style="opacity:1" fill="#d34d8f" d="M 19.5,19.5 C 18.6019,21.9052 17.1019,23.9052 15,25.5C 14.1725,29.8713 14.3391,34.2047 15.5,38.5C 16.3253,34.8776 16.8253,31.211 17,27.5C 17.2784,26.5842 17.7784,25.9175 18.5,25.5C 15.4605,38.0554 19.1272,48.0554 29.5,55.5C 27.4357,55.313 25.4357,54.813 23.5,54C 20.6687,50.6631 18.0021,47.1631 15.5,43.5C 13.914,40.2974 13.2473,36.7974 13.5,33C 13.2473,29.2026 13.914,25.7026 15.5,22.5C 16.6366,21.2112 17.9699,20.2112 19.5,19.5 Z"/></g>
<g><path style="opacity:0.657" fill="#ca50bb" d="M 224.5,19.5 C 224.833,19.5 225.167,19.5 225.5,19.5C 225.5,29.8333 225.5,40.1667 225.5,50.5C 224.272,51.3065 223.272,52.3065 222.5,53.5C 223.671,42.7516 224.337,31.4183 224.5,19.5 Z"/></g>
<g><path style="opacity:0.296" fill="#c5477c" d="M 284.5,31.5 C 285.309,33.2922 285.809,35.2922 286,37.5C 286.21,35.9419 286.71,34.6085 287.5,33.5C 287.5,38.1667 287.5,42.8333 287.5,47.5C 287.167,47.5 286.833,47.5 286.5,47.5C 285.194,42.3839 284.527,37.0506 284.5,31.5 Z"/></g>
<g><path style="opacity:1" fill="#7352de" d="M 93.5,20.5 C 94.8333,22.1667 96.1667,23.8333 97.5,25.5C 97.9516,31.3803 97.1183,37.0469 95,42.5C 92.8943,45.1177 90.3943,47.1177 87.5,48.5C 82.2928,50.0691 77.1262,51.7358 72,53.5C 73.2175,56.6478 74.3841,59.9811 75.5,63.5C 73.9134,60.5723 71.9134,57.9056 69.5,55.5C 69.5,54.1667 69.5,52.8333 69.5,51.5C 66.1667,51.5 62.8333,51.5 59.5,51.5C 64.8753,50.7619 70.2086,49.7619 75.5,48.5C 76.7079,47.7659 78.0413,47.4326 79.5,47.5C 80.7942,46.7101 81.9609,45.7101 83,44.5C 83.4994,38.8431 83.6661,33.1764 83.5,27.5C 85.4228,31.0293 86.0894,35.0293 85.5,39.5C 85.0639,41.7463 84.3972,43.9129 83.5,46C 84.7932,46.49 86.1266,46.6567 87.5,46.5C 87.6056,43.8915 88.7723,41.8915 91,40.5C 91.8525,42.1247 92.8525,42.4581 94,41.5C 94.3951,38.7934 94.8951,36.1267 95.5,33.5C 95.348,29.076 94.6813,24.7426 93.5,20.5 Z"/></g>
<g><path style="opacity:1" fill="#3e56fb" d="M 95.5,33.5 C 94.8951,36.1267 94.3951,38.7934 94,41.5C 92.8525,42.4581 91.8525,42.1247 91,40.5C 88.7723,41.8915 87.6056,43.8915 87.5,46.5C 86.1266,46.6567 84.7932,46.49 83.5,46C 84.3972,43.9129 85.0639,41.7463 85.5,39.5C 87.0554,36.4244 88.0554,33.0911 88.5,29.5C 90.1667,29.5 91.8333,29.5 93.5,29.5C 93.1568,31.4832 93.8235,32.8166 95.5,33.5 Z"/></g>
<g><path style="opacity:1" fill="#4256fa" d="M 282.5,46.5 C 281.683,44.0314 281.183,41.3647 281,38.5C 279.989,39.3366 278.822,39.67 277.5,39.5C 277.321,41.9541 277.987,44.1208 279.5,46C 278.45,48.5329 277.117,50.6996 275.5,52.5C 274.752,46.5484 274.252,40.5484 274,34.5C 271.274,33.3086 268.774,33.642 266.5,35.5C 266.167,35.5 265.833,35.5 265.5,35.5C 265.5,34.5 265.5,33.5 265.5,32.5C 271.167,32.5 276.833,32.5 282.5,32.5C 282.5,37.1667 282.5,41.8333 282.5,46.5 Z"/></g>
<g><path style="opacity:0.976" fill="#d24b9d" d="M 41.5,31.5 C 41.5,34.8333 41.5,38.1667 41.5,41.5C 40.6787,44.6414 40.1787,47.9748 40,51.5C 39.0656,52.8584 38.2323,54.1917 37.5,55.5C 37.5,47.8333 37.5,40.1667 37.5,32.5C 38.1577,33.3984 38.8243,34.3984 39.5,35.5C 40.1719,34.0508 40.8386,32.7175 41.5,31.5 Z"/></g>
<g><path style="opacity:1" fill="#4955f1" d="M 211.5,15.5 C 211.5,31.1667 211.5,46.8333 211.5,62.5C 210.677,59.023 210.177,55.3563 210,51.5C 209.313,48.5744 207.48,47.2411 204.5,47.5C 204.5,43.5 204.5,39.5 204.5,35.5C 205.158,34.6016 205.824,33.6016 206.5,32.5C 206.833,33.5 207.167,34.5 207.5,35.5C 207.069,37.7544 206.403,39.9211 205.5,42C 205.769,43.6075 206.603,44.7741 208,45.5C 208.333,44.8333 208.667,44.1667 209,43.5C 210.054,34.0493 210.887,24.7159 211.5,15.5 Z"/></g>
<g><path style="opacity:1" fill="#445df5" d="M 227.5,16.5 C 226.263,27.1559 226.263,37.8226 227.5,48.5C 228.243,47.0921 229.077,45.7588 230,44.5C 230.22,46.9732 231.386,48.6398 233.5,49.5C 233.178,55.358 233.511,61.0247 234.5,66.5C 234.5,66.8333 234.5,67.1667 234.5,67.5C 231.873,66.9084 229.206,66.5751 226.5,66.5C 226.737,67.791 226.404,68.791 225.5,69.5C 225.5,63.1667 225.5,56.8333 225.5,50.5C 225.5,40.1667 225.5,29.8333 225.5,19.5C 226.167,18.5 226.833,17.5 227.5,16.5 Z"/></g>
<g><path style="opacity:1" fill="#e54da7" d="M 7.5,31.5 C 7.18503,35.3714 7.51836,39.0381 8.5,42.5C 8.70851,47.6659 9.70851,52.6659 11.5,57.5C 7.88458,53.9408 5.55124,49.6074 4.5,44.5C 6.13493,40.427 7.13493,36.0937 7.5,31.5 Z"/></g>
<g><path style="opacity:1" fill="#7448cc" d="M 211.5,15.5 C 211.833,15.5 212.167,15.5 212.5,15.5C 212.181,32.9102 212.515,50.2436 213.5,67.5C 211.824,66.8166 211.157,65.4832 211.5,63.5C 211.5,63.1667 211.5,62.8333 211.5,62.5C 211.5,46.8333 211.5,31.1667 211.5,15.5 Z"/></g>
<g><path style="opacity:1" fill="#db50a8" d="M 265.5,35.5 C 265.833,35.5 266.167,35.5 266.5,35.5C 268.833,35.5 271.167,35.5 273.5,35.5C 273.5,41.5 273.5,47.5 273.5,53.5C 270.718,55.6279 267.718,57.2946 264.5,58.5C 262.97,58.3601 261.97,57.6935 261.5,56.5C 264.547,58.1128 267.047,57.4462 269,54.5C 269.181,51.3054 269.681,48.3054 270.5,45.5C 271.468,43.3926 271.802,41.0593 271.5,38.5C 268.5,39.1667 265.5,39.8333 262.5,40.5C 261.259,44.3512 260.259,48.3512 259.5,52.5C 259.846,53.8492 260.179,55.1825 260.5,56.5C 258.586,53.3157 257.92,49.649 258.5,45.5C 260.083,41.593 262.416,38.2597 265.5,35.5 Z M 270.5,45.5 C 269.681,48.3054 269.181,51.3054 269,54.5C 267.047,57.4462 264.547,58.1128 261.5,56.5C 260.214,49.078 262.714,43.4113 269,39.5C 270.128,41.3453 270.628,43.3453 270.5,45.5 Z"/></g>
<g><path style="opacity:1" fill="#bd4b7e" d="M 270.5,45.5 C 270.628,43.3453 270.128,41.3453 269,39.5C 262.714,43.4113 260.214,49.078 261.5,56.5C 261.167,56.5 260.833,56.5 260.5,56.5C 260.179,55.1825 259.846,53.8492 259.5,52.5C 260.259,48.3512 261.259,44.3512 262.5,40.5C 265.5,39.8333 268.5,39.1667 271.5,38.5C 271.802,41.0593 271.468,43.3926 270.5,45.5 Z"/></g>
<g><path style="opacity:1" fill="#d24f96" d="M 79.5,21.5 C 80.5,21.8333 81.1667,22.5 81.5,23.5C 82.1199,29.0062 82.4532,34.5062 82.5,40C 82.1791,42.8045 81.1791,45.3045 79.5,47.5C 78.0413,47.4326 76.7079,47.7659 75.5,48.5C 69.31,48.8229 63.31,48.4896 57.5,47.5C 64.7344,48.0196 71.5677,46.6863 78,43.5C 81.4277,36.7195 81.261,30.0528 77.5,23.5C 78.8333,23.5 79.5,22.8333 79.5,21.5 Z"/></g>
<g><path style="opacity:1" fill="#445ef7" d="M 137.5,59.5 C 137.155,62.1979 135.822,64.1979 133.5,65.5C 132.178,65.33 131.011,65.6634 130,66.5C 129.536,65.9056 129.369,65.2389 129.5,64.5C 129.751,58.1082 129.418,51.7748 128.5,45.5C 128.5,44.5 128.5,43.5 128.5,42.5C 130.06,42.4809 131.56,42.1476 133,41.5C 134.654,42.6533 136.154,43.9866 137.5,45.5C 138.569,50.1558 138.569,54.8224 137.5,59.5 Z"/></g>
<g><path style="opacity:1" fill="#3e60f9" d="M 193.5,64.5 C 193.5,65.5 193.5,66.5 193.5,67.5C 190.302,66.9644 187.635,67.631 185.5,69.5C 185.167,69.5 184.833,69.5 184.5,69.5C 184.5,66.5 184.5,63.5 184.5,60.5C 185.166,55.6511 185.833,50.6511 186.5,45.5C 187.815,47.3159 189.315,48.9825 191,50.5C 190.872,48.555 191.038,46.7216 191.5,45C 188.532,42.8223 188.865,41.6556 192.5,41.5C 192.175,49.3516 192.508,57.0182 193.5,64.5 Z"/></g>
<g><path style="opacity:1" fill="#df57b8" d="M 54.5,41.5 C 55.9851,43.2488 56.9851,45.2488 57.5,47.5C 63.31,48.4896 69.31,48.8229 75.5,48.5C 70.2086,49.7619 64.8753,50.7619 59.5,51.5C 58.7839,53.5563 58.1172,55.723 57.5,58C 57.8333,58.3333 58.1667,58.6667 58.5,59C 57.2068,59.49 55.8734,59.6567 54.5,59.5C 54.5,53.5 54.5,47.5 54.5,41.5 Z"/></g>
<g><path style="opacity:1" fill="#cc52b2" d="M 152.5,31.5 C 149.896,33.6 147.396,35.9334 145,38.5C 144.333,41.1667 144.333,43.8333 145,46.5C 145.2,48.3197 146.034,49.653 147.5,50.5C 147.833,51.1667 148.167,51.8333 148.5,52.5C 149.502,54.0109 150.169,55.6776 150.5,57.5C 152.179,57.2852 153.179,57.9519 153.5,59.5C 152.417,59.4606 151.417,59.1272 150.5,58.5C 149.702,58.9569 149.369,59.6236 149.5,60.5C 147.243,58.4159 144.743,58.0825 142,59.5C 141.358,55.5092 140.858,51.5092 140.5,47.5C 142.401,44.6572 143.567,41.3238 144,37.5C 145.045,36.6266 145.878,35.6266 146.5,34.5C 148.059,32.7499 150.059,31.7499 152.5,31.5 Z M 142.5,52.5 C 148.601,55.149 148.601,56.4824 142.5,56.5C 142.5,55.1667 142.5,53.8333 142.5,52.5 Z"/></g>
<g><path style="opacity:1" fill="#3b61f9" d="M 282.5,46.5 C 282.177,53.0221 282.51,59.3554 283.5,65.5C 283.527,67.1993 284.194,68.5326 285.5,69.5C 282.193,68.9492 278.86,68.6159 275.5,68.5C 274.699,66.9582 274.366,65.2915 274.5,63.5C 273.086,61.4017 273.752,60.4017 276.5,60.5C 276.167,57.8333 275.833,55.1667 275.5,52.5C 277.117,50.6996 278.45,48.5329 279.5,46C 277.987,44.1208 277.321,41.9541 277.5,39.5C 278.822,39.67 279.989,39.3366 281,38.5C 281.183,41.3647 281.683,44.0314 282.5,46.5 Z"/></g>
<g><path style="opacity:1" fill="#3c5dfa" d="M 165.5,50.5 C 164.345,52.8251 162.345,53.9918 159.5,54C 158.471,57.0571 157.138,57.0571 155.5,54C 155.957,53.586 156.291,53.086 156.5,52.5C 153.522,51.6475 150.522,50.9808 147.5,50.5C 145.992,47.8599 146.326,45.5266 148.5,43.5C 153.629,47.0853 159.296,49.4186 165.5,50.5 Z"/></g>
<g><path style="opacity:1" fill="#ca57a6" d="M 235.5,16.5 C 235.319,26.8666 235.819,37.1999 237,47.5C 237.5,38.5062 237.666,29.5062 237.5,20.5C 237.833,20.5 238.167,20.5 238.5,20.5C 238.5,34.8333 238.5,49.1667 238.5,63.5C 238.167,63.5 237.833,63.5 237.5,63.5C 236.394,55.3752 235.394,47.3752 234.5,39.5C 234.175,31.6484 234.508,23.9818 235.5,16.5 Z"/></g>
<g><path style="opacity:1" fill="#d2519a" d="M 99.5,22.5 C 100.327,27.6509 100.827,32.9842 101,38.5C 102.076,35.921 103.909,34.2543 106.5,33.5C 105.524,34.8149 104.524,36.1482 103.5,37.5C 103.957,38.2975 104.624,38.6309 105.5,38.5C 103.041,41.0872 101.374,44.0872 100.5,47.5C 99.5,47.5 98.5,47.5 97.5,47.5C 97.5,52.1667 97.5,56.8333 97.5,61.5C 96.6739,56.6835 96.1739,51.6835 96,46.5C 94.1266,48.7089 91.96,50.5422 89.5,52C 85.0226,53.9171 80.6893,55.7504 76.5,57.5C 75.2869,56.0476 75.6203,54.7143 77.5,53.5C 81.1996,52.317 84.5329,50.6504 87.5,48.5C 90.3943,47.1177 92.8943,45.1177 95,42.5C 97.1183,37.0469 97.9516,31.3803 97.5,25.5C 98.3267,30.6509 98.8267,35.9842 99,41.5C 100.156,42.9928 100.99,42.8261 101.5,41C 99.6395,35.0149 98.9728,28.8482 99.5,22.5 Z"/></g>
<g><path style="opacity:1" fill="#4b5ff5" d="M 109.5,43.5 C 108.571,52.2858 110.571,60.2858 115.5,67.5C 112.57,66.701 109.57,66.3677 106.5,66.5C 106.649,67.552 106.483,68.552 106,69.5C 105.292,68.6195 104.458,67.9528 103.5,67.5C 101.405,63.4686 100.072,59.1353 99.5,54.5C 99.5992,52.2014 100.266,50.2014 101.5,48.5C 101.351,49.552 101.517,50.552 102,51.5C 102.251,49.567 102.751,47.7337 103.5,46C 105.044,46.4866 106.71,46.9866 108.5,47.5C 108.232,45.901 108.566,44.5676 109.5,43.5 Z"/></g>
<g><path style="opacity:1" fill="#505af0" d="M 17.5,49.5 C 20.8123,53.479 24.479,57.1456 28.5,60.5C 25.3048,61.7266 22.3048,61.3933 19.5,59.5C 13.5915,55.2778 10.2581,49.6111 9.5,42.5C 9.19244,40.076 9.52577,37.7427 10.5,35.5C 12.1107,38.2198 12.944,41.2198 13,44.5C 13.8935,46.7669 15.3935,48.4336 17.5,49.5 Z"/></g>
<g><path style="opacity:1" fill="#4c5bf3" d="M 45.5,19.5 C 45.1667,22.1667 44.8333,24.8333 44.5,27.5C 42.49,34.6652 41.99,41.9986 43,49.5C 43.85,48.5761 44.85,48.5761 46,49.5C 46.9503,48.9777 47.7836,48.311 48.5,47.5C 49.5237,48.8532 50.857,49.5198 52.5,49.5C 52.1936,52.3854 52.5269,55.0521 53.5,57.5C 53.5,59.5 53.5,61.5 53.5,63.5C 51.8235,62.8166 51.1568,61.4832 51.5,59.5C 50.1667,59.5 48.8333,59.5 47.5,59.5C 47.762,60.9778 47.4287,62.3112 46.5,63.5C 45.4782,61.1448 43.8116,59.4782 41.5,58.5C 41.5,52.8333 41.5,47.1667 41.5,41.5C 41.5,38.1667 41.5,34.8333 41.5,31.5C 40.7413,26.6866 42.0747,22.6866 45.5,19.5 Z"/></g>
<g><path style="opacity:0.882" fill="#d06ce1" d="M 148.5,52.5 C 154.389,55.7509 160.389,58.9176 166.5,62C 167.406,63.6995 167.739,65.5328 167.5,67.5C 167.672,68.4916 167.338,69.1583 166.5,69.5C 165.209,69.7373 164.209,69.404 163.5,68.5C 164.684,67.3121 164.684,66.1455 163.5,65C 159.944,63.3924 156.611,61.5591 153.5,59.5C 153.179,57.9519 152.179,57.2852 150.5,57.5C 150.169,55.6776 149.502,54.0109 148.5,52.5 Z"/></g>
<g><path style="opacity:1" fill="#4d60f3" d="M 147.5,50.5 C 150.522,50.9808 153.522,51.6475 156.5,52.5C 156.291,53.086 155.957,53.586 155.5,54C 157.138,57.0571 158.471,57.0571 159.5,54C 162.345,53.9918 164.345,52.8251 165.5,50.5C 166.492,50.3284 167.158,50.6618 167.5,51.5C 169.807,52.9774 171.64,54.9774 173,57.5C 173.499,62.1548 173.666,66.8215 173.5,71.5C 171.824,70.8166 171.157,69.4832 171.5,67.5C 170.167,67.5 168.833,67.5 167.5,67.5C 167.739,65.5328 167.406,63.6995 166.5,62C 160.389,58.9176 154.389,55.7509 148.5,52.5C 148.167,51.8333 147.833,51.1667 147.5,50.5 Z"/></g>
<g><path style="opacity:1" fill="#3962fb" d="M 204.5,47.5 C 207.48,47.2411 209.313,48.5744 210,51.5C 210.177,55.3563 210.677,59.023 211.5,62.5C 211.5,62.8333 211.5,63.1667 211.5,63.5C 209.896,64.287 209.229,65.6203 209.5,67.5C 207.435,67.4828 205.435,67.1495 203.5,66.5C 203.5,66.1667 203.5,65.8333 203.5,65.5C 204.49,59.69 204.823,53.69 204.5,47.5 Z"/></g>
<g><path style="opacity:1" fill="#3f5df9" d="M 257.5,45.5 C 256.676,49.3123 256.176,53.3123 256,57.5C 254.282,59.8971 253.115,62.5638 252.5,65.5C 250.041,61.6497 248.874,62.3164 249,67.5C 248.127,59.6401 248.96,51.9735 251.5,44.5C 251.5,43.8333 251.5,43.1667 251.5,42.5C 253.053,40.615 255.053,39.615 257.5,39.5C 257.5,41.5 257.5,43.5 257.5,45.5 Z"/></g>
<g><path style="opacity:0.62" fill="#cd63d1" d="M 251.5,42.5 C 251.5,43.1667 251.5,43.8333 251.5,44.5C 249.306,46.2214 248.139,48.5547 248,51.5C 247.5,57.8246 247.334,64.1579 247.5,70.5C 246.094,70.0269 245.427,69.0269 245.5,67.5C 243.207,65.5779 240.541,64.2446 237.5,63.5C 237.833,63.5 238.167,63.5 238.5,63.5C 240.821,63.3417 242.654,62.3417 244,60.5C 244.176,56.3123 244.676,52.3123 245.5,48.5C 246.806,45.8611 248.806,43.8611 251.5,42.5 Z"/></g>
<g><path style="opacity:0.886" fill="#c765da" d="M 41.5,41.5 C 41.5,47.1667 41.5,52.8333 41.5,58.5C 41.5,61.8333 41.5,65.1667 41.5,68.5C 40.1667,69.8333 38.8333,69.8333 37.5,68.5C 37.5,64.1667 37.5,59.8333 37.5,55.5C 38.2323,54.1917 39.0656,52.8584 40,51.5C 40.1787,47.9748 40.6787,44.6414 41.5,41.5 Z"/></g>
<g><path style="opacity:1" fill="#7349cf" d="M 239.5,14.5 C 239.5,14.8333 239.5,15.1667 239.5,15.5C 237.901,15.2322 236.568,15.5655 235.5,16.5C 234.508,23.9818 234.175,31.6484 234.5,39.5C 234.5,48.5 234.5,57.5 234.5,66.5C 233.511,61.0247 233.178,55.358 233.5,49.5C 233.721,37.8071 233.388,26.1404 232.5,14.5C 234.833,14.5 237.167,14.5 239.5,14.5 Z"/></g>
<g><path style="opacity:1" fill="#ca62d6" d="M 112.5,33.5 C 110.548,37.2871 107.714,40.2871 104,42.5C 102.441,44.2166 101.608,46.2166 101.5,48.5C 100.266,50.2014 99.5992,52.2014 99.5,54.5C 100.072,59.1353 101.405,63.4686 103.5,67.5C 103.5,68.1667 103.5,68.8333 103.5,69.5C 102.167,69.1667 100.833,68.8333 99.5,68.5C 98.0605,66.412 97.3939,64.0786 97.5,61.5C 97.5,56.8333 97.5,52.1667 97.5,47.5C 98.5,47.5 99.5,47.5 100.5,47.5C 101.374,44.0872 103.041,41.0872 105.5,38.5C 107.296,36.1 109.63,34.4333 112.5,33.5 Z"/></g>
<g><path style="opacity:0.565" fill="#ab6eec" d="M 183.5,37.5 C 184.492,44.9818 184.825,52.6484 184.5,60.5C 184.5,63.5 184.5,66.5 184.5,69.5C 183.811,70.7736 182.977,70.7736 182,69.5C 181.501,64.5111 181.334,59.5111 181.5,54.5C 183.117,49.084 183.784,43.4173 183.5,37.5 Z"/></g>
<g><path style="opacity:1" fill="#d065de" d="M 15.5,43.5 C 18.0021,47.1631 20.6687,50.6631 23.5,54C 25.4357,54.813 27.4357,55.313 29.5,55.5C 32.1842,57.8707 33.5175,60.8707 33.5,64.5C 29.0899,63.9557 24.7566,62.9557 20.5,61.5C 20.1373,60.8165 19.8039,60.1499 19.5,59.5C 22.3048,61.3933 25.3048,61.7266 28.5,60.5C 24.479,57.1456 20.8123,53.479 17.5,49.5C 16.3702,47.6854 15.7036,45.6854 15.5,43.5 Z"/></g>
<g><path style="opacity:1" fill="#d36bdd" d="M 139.5,44.5 C 140.404,45.209 140.737,46.209 140.5,47.5C 140.858,51.5092 141.358,55.5092 142,59.5C 144.743,58.0825 147.243,58.4159 149.5,60.5C 150.939,62.3603 152.605,64.027 154.5,65.5C 154.414,66.4959 154.748,67.3292 155.5,68C 153.803,68.3845 152.137,68.2178 150.5,67.5C 148.204,65.5994 146.371,63.2661 145,60.5C 144.728,63.2538 144.228,65.9205 143.5,68.5C 142.833,67.8333 142.167,67.1667 141.5,66.5C 139.938,66.7329 138.605,67.3995 137.5,68.5C 135.781,67.9779 134.448,66.9779 133.5,65.5C 135.822,64.1979 137.155,62.1979 137.5,59.5C 138.268,58.7375 138.768,57.7375 139,56.5C 139.499,52.5138 139.666,48.5138 139.5,44.5 Z"/></g>
<g><path style="opacity:0.633" fill="#c76be3" d="M 212.5,15.5 C 212.833,15.5 213.167,15.5 213.5,15.5C 213.5,19.5 213.5,23.5 213.5,27.5C 212.874,34.5837 213.541,41.2504 215.5,47.5C 215.5,49.8333 215.5,52.1667 215.5,54.5C 215.5,57.1667 215.5,59.8333 215.5,62.5C 218.01,62.9465 220.01,62.2798 221.5,60.5C 222.468,58.3926 222.802,56.0593 222.5,53.5C 223.272,52.3065 224.272,51.3065 225.5,50.5C 225.5,56.8333 225.5,63.1667 225.5,69.5C 223.113,68.6871 220.78,68.3538 218.5,68.5C 217.081,67.5489 215.415,67.2155 213.5,67.5C 212.515,50.2436 212.181,32.9102 212.5,15.5 Z"/></g>
<g><path style="opacity:0.854" fill="#d56ddd" d="M 203.5,31.5 C 203.5,35.8333 203.5,40.1667 203.5,44.5C 202.508,52.3159 202.174,60.3159 202.5,68.5C 199.542,67.4589 196.542,67.4589 193.5,68.5C 193.5,68.1667 193.5,67.8333 193.5,67.5C 193.5,66.5 193.5,65.5 193.5,64.5C 193.5,54.8333 193.5,45.1667 193.5,35.5C 194.609,35.4431 195.609,35.1098 196.5,34.5C 196.774,43.9047 196.774,53.238 196.5,62.5C 197.183,64.1765 198.517,64.8432 200.5,64.5C 200.5,57.5 200.5,50.5 200.5,43.5C 201.117,43.3893 201.617,43.056 202,42.5C 202.177,38.6437 202.677,34.977 203.5,31.5 Z"/></g>
<g><path style="opacity:0.224" fill="#a6569a" d="M 199.5,34.5 C 200.477,37.2869 200.81,40.2869 200.5,43.5C 200.5,50.5 200.5,57.5 200.5,64.5C 198.517,64.8432 197.183,64.1765 196.5,62.5C 197.15,62.8039 197.817,63.1373 198.5,63.5C 199.498,53.8563 199.832,44.1896 199.5,34.5 Z"/></g>
<g><path style="opacity:0.949" fill="#cf66ca" d="M 8.5,42.5 C 8.83333,42.5 9.16667,42.5 9.5,42.5C 10.2581,49.6111 13.5915,55.2778 19.5,59.5C 19.8039,60.1499 20.1373,60.8165 20.5,61.5C 24.7566,62.9557 29.0899,63.9557 33.5,64.5C 33.5175,60.8707 32.1842,57.8707 29.5,55.5C 34.8245,56.3305 36.6578,59.3305 35,64.5C 33.874,65.9436 32.374,66.6102 30.5,66.5C 22.842,65.9643 16.5087,62.9643 11.5,57.5C 9.70851,52.6659 8.70851,47.6659 8.5,42.5 Z"/></g>
<g><path style="opacity:1" fill="#396af5" d="M 41.5,58.5 C 43.8116,59.4782 45.4782,61.1448 46.5,63.5C 47.4287,62.3112 47.762,60.9778 47.5,59.5C 48.8333,59.5 50.1667,59.5 51.5,59.5C 51.1568,61.4832 51.8235,62.8166 53.5,63.5C 53.5,65.8333 53.5,68.1667 53.5,70.5C 50.5693,69.4064 47.5693,69.4064 44.5,70.5C 42.9704,70.3601 41.9704,69.6935 41.5,68.5C 41.5,65.1667 41.5,61.8333 41.5,58.5 Z"/></g>
<g><path style="opacity:1" fill="#cd6ce6" d="M 234.5,39.5 C 235.394,47.3752 236.394,55.3752 237.5,63.5C 240.541,64.2446 243.207,65.5779 245.5,67.5C 243.107,68.3527 241.774,70.0194 241.5,72.5C 240.5,72.5 239.5,72.5 238.5,72.5C 241.377,68.3426 240.044,66.676 234.5,67.5C 234.5,67.1667 234.5,66.8333 234.5,66.5C 234.5,57.5 234.5,48.5 234.5,39.5 Z"/></g>
<g><path style="opacity:1" fill="#5262f0" d="M 275.5,52.5 C 275.833,55.1667 276.167,57.8333 276.5,60.5C 273.752,60.4017 273.086,61.4017 274.5,63.5C 273.448,63.3505 272.448,63.5172 271.5,64C 269.559,66.4536 267.225,68.287 264.5,69.5C 259.595,68.5546 254.595,68.2213 249.5,68.5C 249.5,69.5 249.5,70.5 249.5,71.5C 248.508,71.6716 247.842,71.3382 247.5,70.5C 247.334,64.1579 247.5,57.8246 248,51.5C 248.139,48.5547 249.306,46.2214 251.5,44.5C 248.96,51.9735 248.127,59.6401 249,67.5C 248.874,62.3164 250.041,61.6497 252.5,65.5C 253.115,62.5638 254.282,59.8971 256,57.5C 256.176,53.3123 256.676,49.3123 257.5,45.5C 257.334,49.8461 257.501,54.1794 258,58.5C 258.374,59.4162 258.874,60.2496 259.5,61C 266.973,63.3075 271.64,60.8075 273.5,53.5C 273.5,47.5 273.5,41.5 273.5,35.5C 271.167,35.5 268.833,35.5 266.5,35.5C 268.774,33.642 271.274,33.3086 274,34.5C 274.252,40.5484 274.752,46.5484 275.5,52.5 Z"/></g>
<g><path style="opacity:1" fill="#dd66db" d="M 257.5,45.5 C 257.833,45.5 258.167,45.5 258.5,45.5C 257.92,49.649 258.586,53.3157 260.5,56.5C 260.833,56.5 261.167,56.5 261.5,56.5C 261.97,57.6935 262.97,58.3601 264.5,58.5C 267.718,57.2946 270.718,55.6279 273.5,53.5C 271.64,60.8075 266.973,63.3075 259.5,61C 258.874,60.2496 258.374,59.4162 258,58.5C 257.501,54.1794 257.334,49.8461 257.5,45.5 Z"/></g>
<g><path style="opacity:0.859" fill="#c36ddc" d="M 54.5,13.5 C 54.5,22.8333 54.5,32.1667 54.5,41.5C 54.5,47.5 54.5,53.5 54.5,59.5C 55.8734,59.6567 57.2068,59.49 58.5,59C 58.1667,58.6667 57.8333,58.3333 57.5,58C 58.1172,55.723 58.7839,53.5563 59.5,51.5C 60.6562,56.8161 62.6562,61.8161 65.5,66.5C 65.6309,67.3764 65.2975,68.0431 64.5,68.5C 62.8149,66.4293 61.1482,64.4293 59.5,62.5C 58.8826,62.3893 58.3826,62.056 58,61.5C 57.5034,63.8098 57.3367,66.1432 57.5,68.5C 57.5,69.5 57.5,70.5 57.5,71.5C 56.0413,71.5674 54.7079,71.2341 53.5,70.5C 53.5,68.1667 53.5,65.8333 53.5,63.5C 53.5,61.5 53.5,59.5 53.5,57.5C 53.1707,42.6572 53.504,27.9905 54.5,13.5 Z"/></g>
<g><path style="opacity:0.898" fill="#de76ee" d="M 167.5,51.5 C 170.615,51.3939 173.281,52.3939 175.5,54.5C 175.5,54.8333 175.5,55.1667 175.5,55.5C 177.125,61.0253 176.792,66.3587 174.5,71.5C 174.167,71.5 173.833,71.5 173.5,71.5C 173.666,66.8215 173.499,62.1548 173,57.5C 171.64,54.9774 169.807,52.9774 167.5,51.5 Z"/></g>
<g><path style="opacity:1" fill="#4760f7" d="M 59.5,51.5 C 62.8333,51.5 66.1667,51.5 69.5,51.5C 69.5,52.8333 69.5,54.1667 69.5,55.5C 67.5696,56.7635 65.9029,58.4301 64.5,60.5C 64.8333,60.8333 65.1667,61.1667 65.5,61.5C 66.5,60.8333 67.5,60.1667 68.5,59.5C 69.7003,60.5312 71.0337,61.3645 72.5,62C 70.5614,62.9078 69.5614,64.4078 69.5,66.5C 68.5,66.5 67.5,66.5 66.5,66.5C 66.1667,66.5 65.8333,66.5 65.5,66.5C 62.6562,61.8161 60.6562,56.8161 59.5,51.5 Z"/></g>
<g><path style="opacity:1" fill="#c668db" d="M 283.5,31.5 C 283.833,31.5 284.167,31.5 284.5,31.5C 284.527,37.0506 285.194,42.3839 286.5,47.5C 286.5,53.8333 286.5,60.1667 286.5,66.5C 288.099,66.2322 289.432,66.5655 290.5,67.5C 290.466,71.579 289.133,72.2457 286.5,69.5C 286.167,69.5 285.833,69.5 285.5,69.5C 284.194,68.5326 283.527,67.1993 283.5,65.5C 283.5,54.1667 283.5,42.8333 283.5,31.5 Z"/></g>
<g><path style="opacity:1" fill="#4067f4" d="M 69.5,55.5 C 71.9134,57.9056 73.9134,60.5723 75.5,63.5C 77.3264,65.1475 78.6597,67.1475 79.5,69.5C 75.4862,69.6655 71.4862,69.4988 67.5,69C 66.7476,68.3292 66.4142,67.4959 66.5,66.5C 67.5,66.5 68.5,66.5 69.5,66.5C 69.5614,64.4078 70.5614,62.9078 72.5,62C 71.0337,61.3645 69.7003,60.5312 68.5,59.5C 67.5,60.1667 66.5,60.8333 65.5,61.5C 65.1667,61.1667 64.8333,60.8333 64.5,60.5C 65.9029,58.4301 67.5696,56.7635 69.5,55.5 Z"/></g>
<g><path style="opacity:1" fill="#d06ddb" d="M 87.5,48.5 C 84.5329,50.6504 81.1996,52.317 77.5,53.5C 75.6203,54.7143 75.2869,56.0476 76.5,57.5C 79.8827,61.5526 82.8827,65.8859 85.5,70.5C 83.2492,71.8647 81.2492,71.5314 79.5,69.5C 78.6597,67.1475 77.3264,65.1475 75.5,63.5C 74.3841,59.9811 73.2175,56.6478 72,53.5C 77.1262,51.7358 82.2928,50.0691 87.5,48.5 Z"/></g>
<g><path style="opacity:1" fill="#945396" d="M 286.5,47.5 C 286.833,47.5 287.167,47.5 287.5,47.5C 287.334,52.8437 287.501,58.1771 288,63.5C 293.117,63.7816 294.617,66.1149 292.5,70.5C 291.833,69.5 291.167,68.5 290.5,67.5C 289.432,66.5655 288.099,66.2322 286.5,66.5C 286.5,60.1667 286.5,53.8333 286.5,47.5 Z"/></g>
<g><path style="opacity:0.969" fill="#d16bde" d="M 113.5,38.5 C 112.436,41.8647 111.436,45.1981 110.5,48.5C 110.489,50.9168 111.489,52.5834 113.5,53.5C 114.469,55.663 115.302,57.9963 116,60.5C 118.355,65.5569 121.355,66.2235 125,62.5C 126.202,60.3225 126.702,57.9892 126.5,55.5C 127.124,55.0831 127.457,54.4164 127.5,53.5C 127.065,48.9457 126.065,44.6124 124.5,40.5C 126.539,41.6718 127.872,43.3384 128.5,45.5C 129.418,51.7748 129.751,58.1082 129.5,64.5C 125.491,68.4201 120.825,69.4201 115.5,67.5C 110.571,60.2858 108.571,52.2858 109.5,43.5C 110.08,41.2512 111.413,39.5846 113.5,38.5 Z M 126.5,55.5 C 126.702,57.9892 126.202,60.3225 125,62.5C 121.355,66.2235 118.355,65.5569 116,60.5C 115.302,57.9963 114.469,55.663 113.5,53.5C 113.336,50.8127 113.503,48.146 114,45.5C 116.155,39.9917 119.155,39.325 123,43.5C 124.477,47.4291 125.644,51.4291 126.5,55.5 Z"/></g>
<g><path style="opacity:1" fill="#656de3" d="M 129.5,64.5 C 129.369,65.2389 129.536,65.9056 130,66.5C 131.011,65.6634 132.178,65.33 133.5,65.5C 134.448,66.9779 135.781,67.9779 137.5,68.5C 137.19,70.1436 136.19,71.1436 134.5,71.5C 132.844,72.1465 131.177,72.8131 129.5,73.5C 128.287,73.2528 127.62,72.5862 127.5,71.5C 122.152,69.8792 116.486,68.5459 110.5,67.5C 109.16,68.8665 107.827,70.1999 106.5,71.5C 105.5,70.8333 104.5,70.1667 103.5,69.5C 103.5,68.8333 103.5,68.1667 103.5,67.5C 104.458,67.9528 105.292,68.6195 106,69.5C 106.483,68.552 106.649,67.552 106.5,66.5C 109.57,66.3677 112.57,66.701 115.5,67.5C 120.825,69.4201 125.491,68.4201 129.5,64.5 Z"/></g>
<g><path style="opacity:1" fill="#586ce7" d="M 150.5,67.5 C 151.789,68.6366 152.789,69.9699 153.5,71.5C 151.127,70.0064 148.794,69.6731 146.5,70.5C 144.402,71.9143 143.402,71.2476 143.5,68.5C 144.228,65.9205 144.728,63.2538 145,60.5C 146.371,63.2661 148.204,65.5994 150.5,67.5 Z"/></g>
<g><path style="opacity:0.894" fill="#9c6fd4" d="M 154.5,65.5 C 157.285,67.0951 160.285,68.0951 163.5,68.5C 164.209,69.404 165.209,69.7373 166.5,69.5C 166.082,70.2216 165.416,70.7216 164.5,71C 160.848,71.4986 157.182,71.6653 153.5,71.5C 152.789,69.9699 151.789,68.6366 150.5,67.5C 152.137,68.2178 153.803,68.3845 155.5,68C 154.748,67.3292 154.414,66.4959 154.5,65.5 Z"/></g>
<g><path style="opacity:1" fill="#4172eb" d="M 211.5,63.5 C 211.157,65.4832 211.824,66.8166 213.5,67.5C 215.415,67.2155 217.081,67.5489 218.5,68.5C 217.9,69.9002 216.9,70.9002 215.5,71.5C 211.658,70.4608 207.658,70.4608 203.5,71.5C 203.5,69.8333 203.5,68.1667 203.5,66.5C 205.435,67.1495 207.435,67.4828 209.5,67.5C 209.229,65.6203 209.896,64.287 211.5,63.5 Z"/></g>
<g><path style="opacity:0.976" fill="#a46ae6" d="M 203.5,44.5 C 203.5,51.5 203.5,58.5 203.5,65.5C 203.5,65.8333 203.5,66.1667 203.5,66.5C 203.5,68.1667 203.5,69.8333 203.5,71.5C 201.435,71.5172 199.435,71.8505 197.5,72.5C 197.5,71.5 197.5,70.5 197.5,69.5C 195.901,69.7678 194.568,69.4345 193.5,68.5C 196.542,67.4589 199.542,67.4589 202.5,68.5C 202.174,60.3159 202.508,52.3159 203.5,44.5 Z"/></g>
<g><path style="opacity:1" fill="#387edf" d="M 127.5,71.5 C 124.718,73.9216 121.385,74.9216 117.5,74.5C 113.347,74.8673 109.68,73.8673 106.5,71.5C 107.827,70.1999 109.16,68.8665 110.5,67.5C 116.486,68.5459 122.152,69.8792 127.5,71.5 Z"/></g>
<g><path style="opacity:1" fill="#3f79e5" d="M 234.5,67.5 C 240.044,66.676 241.377,68.3426 238.5,72.5C 235.296,73.9597 231.962,74.4597 228.5,74C 226.859,72.871 225.859,71.371 225.5,69.5C 226.404,68.791 226.737,67.791 226.5,66.5C 229.206,66.5751 231.873,66.9084 234.5,67.5 Z"/></g>
<g><path style="opacity:1" fill="#4c77ca" d="M 59.5,62.5 C 61.1482,64.4293 62.8149,66.4293 64.5,68.5C 65.2975,68.0431 65.6309,67.3764 65.5,66.5C 65.8333,66.5 66.1667,66.5 66.5,66.5C 66.4142,67.4959 66.7476,68.3292 67.5,69C 71.4862,69.4988 75.4862,69.6655 79.5,69.5C 81.2492,71.5314 83.2492,71.8647 85.5,70.5C 87.8777,72.8785 89.8777,75.5451 91.5,78.5C 90.4324,79.4345 89.099,79.7678 87.5,79.5C 83.5325,74.0381 78.5325,73.0381 72.5,76.5C 69.9683,75.6285 67.6349,75.2952 65.5,75.5C 63.7347,70.9747 61.7347,66.6413 59.5,62.5 Z"/></g>
<g><path style="opacity:1" fill="#4977d3" d="M 167.5,67.5 C 168.833,67.5 170.167,67.5 171.5,67.5C 171.157,69.4832 171.824,70.8166 173.5,71.5C 173.833,71.5 174.167,71.5 174.5,71.5C 173.167,72.8333 171.833,74.1667 170.5,75.5C 163.185,74.8637 155.852,74.3637 148.5,74C 147.027,73.2904 146.36,72.1238 146.5,70.5C 148.794,69.6731 151.127,70.0064 153.5,71.5C 157.182,71.6653 160.848,71.4986 164.5,71C 165.416,70.7216 166.082,70.2216 166.5,69.5C 167.338,69.1583 167.672,68.4916 167.5,67.5 Z"/></g>
<g><path style="opacity:1" fill="#3a7edb" d="M 193.5,67.5 C 193.5,67.8333 193.5,68.1667 193.5,68.5C 194.568,69.4345 195.901,69.7678 197.5,69.5C 197.5,70.5 197.5,71.5 197.5,72.5C 195.9,71.488 194.566,71.988 193.5,74C 188.906,75.6508 186.24,74.1508 185.5,69.5C 187.635,67.631 190.302,66.9644 193.5,67.5 Z"/></g>
<g><path style="opacity:1" fill="#3a7fdd" d="M 264.5,69.5 C 263.833,70.8333 263.167,72.1667 262.5,73.5C 260.453,73.5111 258.453,73.8444 256.5,74.5C 253.708,74.2394 251.375,73.2394 249.5,71.5C 249.5,70.5 249.5,69.5 249.5,68.5C 254.595,68.2213 259.595,68.5546 264.5,69.5 Z"/></g>
<g><path style="opacity:1" fill="#8f68cf" d="M 274.5,63.5 C 274.366,65.2915 274.699,66.9582 275.5,68.5C 275.5,69.8333 275.5,71.1667 275.5,72.5C 274.798,73.1157 273.798,73.1157 272.5,72.5C 270.602,71.2655 268.935,71.5989 267.5,73.5C 265.833,73.5 264.167,73.5 262.5,73.5C 263.167,72.1667 263.833,70.8333 264.5,69.5C 267.225,68.287 269.559,66.4536 271.5,64C 272.448,63.5172 273.448,63.3505 274.5,63.5 Z"/></g>
<g><path style="opacity:1" fill="#3b80dc" d="M 275.5,68.5 C 278.86,68.6159 282.193,68.9492 285.5,69.5C 285.833,69.5 286.167,69.5 286.5,69.5C 286.863,71.9115 285.863,73.4115 283.5,74C 280.502,74.8907 277.836,74.3907 275.5,72.5C 275.5,71.1667 275.5,69.8333 275.5,68.5 Z"/></g>
<g><path style="opacity:1" fill="#5269bb" d="M 37.5,68.5 C 38.8333,69.8333 40.1667,69.8333 41.5,68.5C 41.9704,69.6935 42.9704,70.3601 44.5,70.5C 47.5693,69.4064 50.5693,69.4064 53.5,70.5C 54.7079,71.2341 56.0413,71.5674 57.5,71.5C 60.512,74.3686 59.8453,75.7019 55.5,75.5C 55.5858,74.5041 55.2524,73.6708 54.5,73C 50.1667,72.3333 45.8333,72.3333 41.5,73C 39.6084,74.7648 37.6084,76.2648 35.5,77.5C 34.8333,77.5 34.1667,77.5 33.5,77.5C 30.9899,77.9465 28.9899,77.2798 27.5,75.5C 32.2734,75.1216 35.6067,72.7882 37.5,68.5 Z"/></g>
<g><path style="opacity:1" fill="#2695d4" d="M 55.5,75.5 C 48.7748,75.7725 42.1081,76.4392 35.5,77.5C 37.6084,76.2648 39.6084,74.7648 41.5,73C 45.8333,72.3333 50.1667,72.3333 54.5,73C 55.2524,73.6708 55.5858,74.5041 55.5,75.5 Z"/></g>
<g><path style="opacity:0.125" fill="#8c70ae" d="M 175.5,55.5 C 176.222,55.9175 176.722,56.5842 177,57.5C 178.223,63.3792 177.389,68.8792 174.5,74C 173.255,74.7914 171.922,75.2914 170.5,75.5C 171.833,74.1667 173.167,72.8333 174.5,71.5C 176.792,66.3587 177.125,61.0253 175.5,55.5 Z"/></g>
<g><path style="opacity:1" fill="#5964b1" d="M 180.5,45.5 C 180.833,45.5 181.167,45.5 181.5,45.5C 181.5,48.5 181.5,51.5 181.5,54.5C 181.334,59.5111 181.501,64.5111 182,69.5C 182.977,70.7736 183.811,70.7736 184.5,69.5C 184.833,69.5 185.167,69.5 185.5,69.5C 186.24,74.1508 188.906,75.6508 193.5,74C 194.566,71.988 195.9,71.488 197.5,72.5C 199.435,71.8505 201.435,71.5172 203.5,71.5C 207.658,70.4608 211.658,70.4608 215.5,71.5C 216.741,74.005 215.741,75.505 212.5,76C 209.854,76.4974 207.187,76.6641 204.5,76.5C 202.976,75.8262 201.642,74.8262 200.5,73.5C 195.371,78.7031 189.537,79.7031 183,76.5C 182.333,74.5 181.667,72.5 181,70.5C 180.5,62.1733 180.334,53.84 180.5,45.5 Z"/></g>
<g><path style="opacity:1" fill="#5c5ca8" d="M 218.5,68.5 C 220.78,68.3538 223.113,68.6871 225.5,69.5C 225.859,71.371 226.859,72.871 228.5,74C 231.962,74.4597 235.296,73.9597 238.5,72.5C 239.5,72.5 240.5,72.5 241.5,72.5C 240.327,74.5041 238.66,76.0041 236.5,77C 233.776,77.2695 231.109,77.7695 228.5,78.5C 225.81,76.644 223.644,74.3106 222,71.5C 219.108,74.0574 215.941,76.224 212.5,78C 209.518,78.7029 206.851,78.2029 204.5,76.5C 207.187,76.6641 209.854,76.4974 212.5,76C 215.741,75.505 216.741,74.005 215.5,71.5C 216.9,70.9002 217.9,69.9002 218.5,68.5 Z"/></g>
<g><path style="opacity:1" fill="#565ba6" d="M 245.5,67.5 C 245.427,69.0269 246.094,70.0269 247.5,70.5C 247.842,71.3382 248.508,71.6716 249.5,71.5C 251.375,73.2394 253.708,74.2394 256.5,74.5C 258.453,73.8444 260.453,73.5111 262.5,73.5C 264.167,73.5 265.833,73.5 267.5,73.5C 262.413,78.767 256.413,79.9336 249.5,77C 248,74.8333 246.5,72.6667 245,70.5C 244.184,71.8228 243.017,72.4894 241.5,72.5C 241.774,70.0194 243.107,68.3527 245.5,67.5 Z"/></g>
<g><path style="opacity:1" fill="#3e5e91" d="M 57.5,68.5 C 58.8524,72.1777 61.5191,74.511 65.5,75.5C 67.6349,75.2952 69.9683,75.6285 72.5,76.5C 71.8166,78.1765 70.4832,78.8432 68.5,78.5C 67.6043,77.4937 66.9377,77.4937 66.5,78.5C 63.5271,79.3193 60.5271,78.9859 57.5,77.5C 56.8333,76.8333 56.1667,76.1667 55.5,75.5C 59.8453,75.7019 60.512,74.3686 57.5,71.5C 57.5,70.5 57.5,69.5 57.5,68.5 Z"/></g>
<g><path style="opacity:1" fill="#505da3" d="M 141.5,66.5 C 142.167,67.1667 142.833,67.8333 143.5,68.5C 143.402,71.2476 144.402,71.9143 146.5,70.5C 146.36,72.1238 147.027,73.2904 148.5,74C 155.852,74.3637 163.185,74.8637 170.5,75.5C 162.126,78.787 153.459,79.287 144.5,77C 142.071,73.9587 141.071,70.4587 141.5,66.5 Z"/></g>
<g><path style="opacity:1" fill="#4f5aa0" d="M 290.5,67.5 C 291.167,68.5 291.833,69.5 292.5,70.5C 288.998,77.918 283.331,80.418 275.5,78C 273.393,76.7365 272.393,74.9032 272.5,72.5C 273.798,73.1157 274.798,73.1157 275.5,72.5C 277.836,74.3907 280.502,74.8907 283.5,74C 285.863,73.4115 286.863,71.9115 286.5,69.5C 289.133,72.2457 290.466,71.579 290.5,67.5 Z"/></g>
<g><path style="opacity:1" fill="#2496b6" d="M 87.5,79.5 C 83.4347,77.7217 79.1014,77.0551 74.5,77.5C 74.5,79.1667 74.5,80.8333 74.5,82.5C 73.5,82.5 72.5,82.5 71.5,82.5C 70.0256,81.5637 69.0256,80.2303 68.5,78.5C 70.4832,78.8432 71.8166,78.1765 72.5,76.5C 78.5325,73.0381 83.5325,74.0381 87.5,79.5 Z"/></g>
<g><path style="opacity:1" fill="#4d5c97" d="M 99.5,68.5 C 100.833,68.8333 102.167,69.1667 103.5,69.5C 104.5,70.1667 105.5,70.8333 106.5,71.5C 109.68,73.8673 113.347,74.8673 117.5,74.5C 121.385,74.9216 124.718,73.9216 127.5,71.5C 127.62,72.5862 128.287,73.2528 129.5,73.5C 131.177,72.8131 132.844,72.1465 134.5,71.5C 127.818,77.9981 119.818,80.1648 110.5,78C 106.051,75.7157 102.384,72.5491 99.5,68.5 Z"/></g>
<g><path style="opacity:1" fill="#21abbd" d="M 55.5,75.5 C 56.1667,76.1667 56.8333,76.8333 57.5,77.5C 57.6107,78.1174 57.944,78.6174 58.5,79C 49.5,79.6667 40.5,79.6667 31.5,79C 32.4158,78.7216 33.0825,78.2216 33.5,77.5C 34.1667,77.5 34.8333,77.5 35.5,77.5C 42.1081,76.4392 48.7748,75.7725 55.5,75.5 Z"/></g>
<g><path style="opacity:0.995" fill="#2c7d94" d="M 27.5,75.5 C 28.9899,77.2798 30.9899,77.9465 33.5,77.5C 33.0825,78.2216 32.4158,78.7216 31.5,79C 40.5,79.6667 49.5,79.6667 58.5,79C 57.944,78.6174 57.6107,78.1174 57.5,77.5C 60.5271,78.9859 63.5271,79.3193 66.5,78.5C 65.8825,80.2292 64.8825,81.7292 63.5,83C 53.213,83.0359 42.8796,83.0359 32.5,83C 30.4233,82.8078 28.4233,82.3078 26.5,81.5C 24.9479,79.0654 25.2812,77.0654 27.5,75.5 Z"/></g>
<g><path style="opacity:1" fill="#30aba0" d="M 87.5,79.5 C 89.099,79.7678 90.4324,79.4345 91.5,78.5C 95.8333,82.1667 99.8333,86.1667 103.5,90.5C 95.1195,84.9145 94.4528,85.9145 101.5,93.5C 98.5468,92.2128 96.2135,90.2128 94.5,87.5C 93.9423,86.2101 92.9423,85.3768 91.5,85C 89.5,84.8333 87.5,84.6667 85.5,84.5C 83.0478,84.5391 81.0478,85.2057 79.5,86.5C 77.544,84.8249 76.2107,85.1582 75.5,87.5C 73.457,86.4206 72.1237,84.754 71.5,82.5C 72.5,82.5 73.5,82.5 74.5,82.5C 74.5,80.8333 74.5,79.1667 74.5,77.5C 79.1014,77.0551 83.4347,77.7217 87.5,79.5 Z"/></g>
<g><path style="opacity:1" fill="#7386d3" d="M 94.5,87.5 C 91.6918,86.1155 88.6918,85.4488 85.5,85.5C 83.3603,85.5561 81.6936,86.2227 80.5,87.5C 79.8333,87.5 79.5,87.1667 79.5,86.5C 81.0478,85.2057 83.0478,84.5391 85.5,84.5C 87.5,84.6667 89.5,84.8333 91.5,85C 92.9423,85.3768 93.9423,86.2101 94.5,87.5 Z"/></g>
<g><path style="opacity:1" fill="#6fe79c" d="M 79.5,86.5 C 79.5,87.1667 79.8333,87.5 80.5,87.5C 82.8558,90.1864 85.1891,92.853 87.5,95.5C 87.6309,96.3764 87.2975,97.0431 86.5,97.5C 85.5832,96.8728 84.5832,96.5394 83.5,96.5C 80.8333,93.5 78.1667,90.5 75.5,87.5C 76.2107,85.1582 77.544,84.8249 79.5,86.5 Z"/></g>
<g><path style="opacity:1" fill="#9c5ced" d="M 94.5,87.5 C 96.2135,90.2128 98.5468,92.2128 101.5,93.5C 102.973,95.3947 104.64,97.0613 106.5,98.5C 102.261,97.2431 97.9277,96.2431 93.5,95.5C 92.8333,95.6667 92.1667,95.8333 91.5,96C 92.8228,96.8159 93.4894,97.9826 93.5,99.5C 92.5,98.8333 91.5,98.1667 90.5,97.5C 90.0269,96.0937 89.0269,95.427 87.5,95.5C 85.1891,92.853 82.8558,90.1864 80.5,87.5C 81.6936,86.2227 83.3603,85.5561 85.5,85.5C 88.6918,85.4488 91.6918,86.1155 94.5,87.5 Z"/></g>
<g><path style="opacity:1" fill="#6aea93" d="M 103.5,90.5 C 104.5,91.1667 105.5,91.8333 106.5,92.5C 106.53,93.4972 106.03,94.1639 105,94.5C 103.862,94.0109 102.695,93.6775 101.5,93.5C 94.4528,85.9145 95.1195,84.9145 103.5,90.5 Z"/></g>
<g><path style="opacity:0.98" fill="#d1e8b0" d="M 143.5,101.5 C 139.204,101.92 138.537,100.253 141.5,96.5C 139.969,95.5788 138.635,95.9122 137.5,97.5C 135.5,97.5 133.5,97.5 131.5,97.5C 134.263,95.9202 136.93,94.0869 139.5,92C 141.5,91.3333 143.5,91.3333 145.5,92C 146.022,92.5613 146.355,93.228 146.5,94C 146.018,96.8193 145.018,99.3193 143.5,101.5 Z"/></g>
<g><path style="opacity:1" fill="#e9e39e" d="M 87.5,95.5 C 89.0269,95.427 90.0269,96.0937 90.5,97.5C 91.494,99.3344 91.494,101.001 90.5,102.5C 87.5677,101.2 85.2344,99.2003 83.5,96.5C 84.5832,96.5394 85.5832,96.8728 86.5,97.5C 87.2975,97.0431 87.6309,96.3764 87.5,95.5 Z"/></g>
<g><path style="opacity:1" fill="#d525f8" d="M 106.5,98.5 C 105.129,99.7868 103.295,100.453 101,100.5C 98.4494,100.375 95.9494,100.042 93.5,99.5C 93.4894,97.9826 92.8228,96.8159 91.5,96C 92.1667,95.8333 92.8333,95.6667 93.5,95.5C 97.9277,96.2431 102.261,97.2431 106.5,98.5 Z"/></g>
<g><path style="opacity:0.624" fill="#e4d0a0" d="M 106.5,92.5 C 114.16,98.1979 122.493,99.8646 131.5,97.5C 133.5,97.5 135.5,97.5 137.5,97.5C 134.021,99.4225 130.354,101.256 126.5,103C 122.31,103.81 118.31,103.31 114.5,101.5C 111.857,100.546 109.19,99.546 106.5,98.5C 104.64,97.0613 102.973,95.3947 101.5,93.5C 102.695,93.6775 103.862,94.0109 105,94.5C 106.03,94.1639 106.53,93.4972 106.5,92.5 Z"/></g>
<g><path style="opacity:1" fill="#f736ca" d="M 106.5,98.5 C 109.19,99.546 111.857,100.546 114.5,101.5C 114.804,102.15 115.137,102.817 115.5,103.5C 110.171,104.612 104.838,104.612 99.5,103.5C 97.1475,102.66 95.1475,101.326 93.5,99.5C 95.9494,100.042 98.4494,100.375 101,100.5C 103.295,100.453 105.129,99.7868 106.5,98.5 Z"/></g>
<g><path style="opacity:1" fill="#f45baf" d="M 137.5,97.5 C 138.376,97.3691 139.043,97.7025 139.5,98.5C 138.807,99.5178 138.141,100.518 137.5,101.5C 125.351,108.204 112.685,109.204 99.5,104.5C 99.5,104.167 99.5,103.833 99.5,103.5C 104.838,104.612 110.171,104.612 115.5,103.5C 115.137,102.817 114.804,102.15 114.5,101.5C 118.31,103.31 122.31,103.81 126.5,103C 130.354,101.256 134.021,99.4225 137.5,97.5 Z"/></g>
<g><path style="opacity:1" fill="#efbcbc" d="M 90.5,97.5 C 91.5,98.1667 92.5,98.8333 93.5,99.5C 95.1475,101.326 97.1475,102.66 99.5,103.5C 99.5,103.833 99.5,104.167 99.5,104.5C 100.502,106.011 101.169,107.678 101.5,109.5C 97.3171,107.913 93.6505,105.579 90.5,102.5C 91.494,101.001 91.494,99.3344 90.5,97.5 Z"/></g>
<g><path style="opacity:0.169" fill="#ceb0a2" d="M 143.5,101.5 C 141.082,104.547 138.082,106.88 134.5,108.5C 134.077,107.735 133.743,106.902 133.5,106C 135.018,104.649 136.351,103.149 137.5,101.5C 138.141,100.518 138.807,99.5178 139.5,98.5C 139.043,97.7025 138.376,97.3691 137.5,97.5C 138.635,95.9122 139.969,95.5788 141.5,96.5C 138.537,100.253 139.204,101.92 143.5,101.5 Z"/></g>
<g><path style="opacity:1" fill="#eb95d4" d="M 137.5,101.5 C 136.351,103.149 135.018,104.649 133.5,106C 133.743,106.902 134.077,107.735 134.5,108.5C 131.468,109.927 128.468,110.927 125.5,111.5C 120.704,110.418 115.871,110.418 111,111.5C 107.682,111.378 104.515,110.711 101.5,109.5C 101.169,107.678 100.502,106.011 99.5,104.5C 112.685,109.204 125.351,108.204 137.5,101.5 Z"/></g>
</svg>
